<?xml version="1.0" encoding="UTF-8"?>
<svg id="Capa_2" data-name="Capa 2" xmlns="http://www.w3.org/2000/svg" viewBox="0 0 409.6 383.94">
  <defs>
    <style>
      .cls-1 {
        fill: #b5f5f3;
      }
    </style>
  </defs>
  <g id="Capa_1-2" data-name="Capa 1">
    <path class="cls-1" d="m0,169.53v-5.6c1.79-5.9,6.18-8.84,11.67-11.03C137.55,102.62,263.39,52.27,389.25,1.93c10.28-4.11,15.89-1.8,20.35,8.37v5.6c-1.6,8.89-3.3,17.77-4.79,26.68-6.85,40.84-13.64,81.69-20.45,122.54-7.05,42.29-14.1,84.59-21.14,126.88-1.62,9.72-3.16,19.45-4.86,29.16-1.62,9.26-9.57,13.72-18.17,10.3-1.73-.69-3.41-1.51-5.1-2.29-21.62-9.98-43.25-19.96-65.04-30.01-30.12,28.1-60.16,56.14-90.83,84.76,0-2.43,0-3.87,0-5.31,0-36.8.23-73.6-.18-110.39-.09-7.88,2.15-13.52,7.41-19.39,68.25-76.31,136.23-152.85,204.28-229.34.88-.99,1.67-2.06,2.5-3.09-1.36.41-2.31,1.12-3.23,1.88-86.29,70.92-172.59,141.82-258.8,212.82-2.49,2.05-4.23,2.08-6.97.81-37.29-17.34-74.61-34.62-111.99-51.77-5.22-2.4-9.89-5.07-12.2-10.63Z"/>
  </g>
</svg>