<?xml version="1.0" encoding="UTF-8"?>
<svg id="Capa_2" data-name="Capa 2" xmlns="http://www.w3.org/2000/svg" viewBox="0 0 278.92 306.96">
  <defs>
    <style>
      .cls-1 {
        fill: #283635;
      }
    </style>
  </defs>
  <g id="Capa_1-2" data-name="Capa 1">
    <path class="cls-1" d="m112.38,206.16c-4.91-.78-9.18-1.41-13.43-2.13-13.13-2.22-25.79-5.89-37.51-12.36-16.06-8.87-27.54-21.81-33.95-38.99-7.55-20.2-9.51-41.05-5.77-62.28,2.3-13.09,8.42-24.48,17.15-34.45,1.38-1.58,1.76-2.83,1.05-4.97-5.38-16.23-3.75-32.23,1.89-48.08.92-2.59,2.86-2.91,4.72-2.58,6.73,1.19,13.8,1.74,19.99,4.32,10.08,4.21,19.54,9.92,29.35,14.79,1.69.84,4.03,1.34,5.81.91,31.55-7.62,63.08-7.9,94.6-.02,3.08.77,5.37.21,7.95-1.46,12-7.77,24.44-14.86,38.67-17.45,15.29-2.78,13.02-2.41,16.5,10.13,3.68,13.26,3.65,26.64-.54,39.91-.35,1.12.03,2.99.81,3.88,15.52,17.88,20.71,38.81,18.92,62-1.1,14.31-3.51,28.25-9.77,41.28-10.78,22.42-29.41,35.1-52.7,41.52-9.47,2.61-19.25,4.14-29.04,6.19.06.11.19.72.56,1.1,7.93,8.3,11.47,18.55,11.72,29.64.44,19.61.18,39.24.08,58.86-.02,4.75.99,8.65,5.86,11.03h-113.73c7.12-1.76,7.88-6.75,7.76-12.56-.21-9.98-.06-19.97-.06-30.29-5.88.64-11.25,1.44-16.65,1.78-11.56.72-22.7-.98-32.9-6.83-8.85-5.07-15.27-12.32-19.13-21.84-5.08-12.52-12.14-23.49-24.14-30.61-1.79-1.06-3.39-2.59-4.79-4.15-2.64-2.94-2.12-5.41,1.7-5.83,4.47-.48,9.29-.48,13.57.7,10.64,2.94,18.06,10.29,23.77,19.49,5.85,9.44,13.44,16.76,24.45,19.75,11.33,3.08,22.29,1.31,32.94-3.09.84-.35,1.75-1.48,1.91-2.38,1.73-9.26,5.15-17.69,12.41-24.94Z"/>
  </g>
</svg>