<?xml version="1.0" encoding="UTF-8"?>
<svg id="Capa_2" data-name="Capa 2" xmlns="http://www.w3.org/2000/svg" viewBox="0 0 306.79 307.14">
  <defs>
    <style>
      .cls-1 {
        fill: #283635;
      }
    </style>
  </defs>
  <g id="Capa_1-2" data-name="Capa 1">
    <g>
      <path class="cls-1" d="m172.14,307.14h-63.38V102.48h60.79v27.24c4.38-5.11,8.1-10.29,12.64-14.59,11.19-10.58,24.87-16.08,40.06-17.47,13.14-1.21,26.19-.25,38.87,3.72,21.12,6.61,33.57,21.48,39.77,42.24,4.12,13.77,5.59,27.95,5.69,42.21.27,39.63.16,79.26.2,118.89,0,.49-.09.97-.16,1.78h-63.47c0-1.48,0-2.94,0-4.4-.02-33.88.07-67.76-.14-101.64-.04-7.09-.68-14.26-1.97-21.23-3.92-21.27-17.62-28.17-36.87-25.98-17.88,2.03-27.77,12.59-30.49,32.01-.98,7.03-1.44,14.18-1.47,21.28-.15,32-.07,64.01-.07,96.01,0,1.47,0,2.93,0,4.58Z"/>
      <path class="cls-1" d="m68.44,307.14H5.32V102.35h63.12v204.79Z"/>
      <path class="cls-1" d="m73.57,37.39c-.43,20.89-17.26,37.22-37.86,36.73C15.96,73.64-.41,56.3,0,36.28.44,15.94,17.47-.51,37.57.01c20.29.53,36.41,17.27,36,37.38Z"/>
    </g>
  </g>
</svg>