<?xml version="1.0" encoding="UTF-8"?>
<svg id="Capa_2" data-name="Capa 2" xmlns="http://www.w3.org/2000/svg" viewBox="0 0 383.33 287.78">
  <defs>
    <style>
      .cls-1 {
        fill: #b5f5f3;
      }
    </style>
  </defs>
  <g id="Capa_1-2" data-name="Capa 1">
    <g>
      <path class="cls-1" d="m0,257.15c0-58.75,0-117.5,0-176.25.56.24,1.17.4,1.66.74,51.86,34.64,103.71,69.29,155.56,103.94,22.6,15.1,46.03,15.22,68.52.21,51.25-34.19,102.47-68.44,153.7-102.65,1.09-.73,2.22-1.42,3.8-2.43v3.06c0,55.99.02,111.98-.05,167.98,0,3.09-.37,6.26-1.12,9.26-4.14,16.47-18.04,26.75-36.06,26.76-51.77.03-103.53,0-155.3,0s-102.29-.02-153.43.02c-10.16,0-19.1-2.99-26.56-10.07-5.93-5.63-8.89-12.8-10.73-20.56Z"/>
      <path class="cls-1" d="m0,30.65c.62-2.14,1.15-4.3,1.86-6.41C6.71,9.82,19.71.41,35.42.08c6.98-.15,13.97-.03,20.96-.03,96.43,0,192.85.02,289.28-.02,11.16,0,20.85,3.34,28.43,11.77,14.3,15.91,11.74,39.69-5.93,51.73-23.29,15.87-46.84,31.38-70.28,47.04-27.9,18.64-55.79,37.28-83.7,55.91-16.05,10.72-29.03,10.71-45.06,0-49.17-32.84-98.24-65.82-147.57-98.4C11.03,61.13,2.59,53.23,0,40.4c0-3.25,0-6.5,0-9.75Z"/>
    </g>
  </g>
</svg>