<?xml version="1.0" encoding="UTF-8"?>
<svg id="Capa_2" data-name="Capa 2" xmlns="http://www.w3.org/2000/svg" viewBox="0 0 319.38 319.47">
  <defs>
    <style>
      .cls-1 {
        fill: #b5f5f3;
      }
    </style>
  </defs>
  <g id="Capa_1-2" data-name="Capa 1">
    <g>
      <path class="cls-1" d="m159.49,319.44c-36.93,0-73.87.07-110.8-.02-24.65-.06-43.78-16.13-48.1-40.25-.5-2.8-.56-5.71-.56-8.57C0,196.71-.02,122.83.03,48.94.05,24.04,16.14,4.85,40.42.6c2.68-.47,5.47-.52,8.2-.52,47.17-.03,94.33-.03,141.5-.01,10.33,0,17.46,6.57,17.45,15.92,0,8.37-6.52,15.32-14.87,15.82-1.49.09-2.99.07-4.49.07-45.79,0-91.59,0-137.38,0-12.9,0-19,6.11-19,19.05,0,72.51,0,145.03,0,217.54,0,13.13,6.07,19.16,19.28,19.16,72.37,0,144.74,0,217.11,0,13.2,0,19.29-6.04,19.29-19.15,0-46.43,0-92.86.01-139.28,0-8.95,4.46-14.98,12.31-16.92,9.33-2.3,18.71,4.54,19.4,14.16.09,1.24.09,2.49.09,3.74,0,46.68.04,93.36-.01,140.03-.02,23.58-14.34,42.46-36.43,47.81-4.43,1.07-9.13,1.36-13.71,1.37-36.56.11-73.12.06-109.68.06Z"/>
      <path class="cls-1" d="m287.53,54.52c-10.19,10.17-19.55,19.48-28.88,28.82-28.83,28.86-57.67,57.71-86.45,86.63-4.81,4.84-10.35,6.96-16.97,5.14-10.95-3.02-15.17-16.39-8.09-25.33,1-1.27,2.2-2.38,3.34-3.53,36.89-36.86,73.78-73.71,110.72-110.52,1.01-1.01,2.58-1.45,3.89-2.16-.42-.57-.84-1.14-1.26-1.71-2.82,0-5.63.07-8.45-.01-9.17-.28-15.82-7.05-15.77-16,.05-8.77,6.67-15.64,15.64-15.72,16.09-.15,32.18-.15,48.27,0,9.04.08,15.63,6.6,15.72,15.61.16,16.09.16,32.19,0,48.28-.09,9.17-7.04,15.83-15.98,15.77-8.76-.05-15.46-6.69-15.74-15.65-.09-2.83-.01-5.66-.01-9.6Z"/>
    </g>
  </g>
</svg>